<svg xmlns="http://www.w3.org/2000/svg" viewBox="0 0 100 100">
<!-- Simplified recreation: hnswlib has no official logo. Layered small-world graph motif. -->
<g stroke="#94A3B8" stroke-width="2.5" fill="none">
<line x1="20" y1="20" x2="80" y2="20"/><line x1="20" y1="20" x2="50" y2="50"/><line x1="80" y1="20" x2="50" y2="50"/>
<line x1="15" y1="50" x2="50" y2="50"/><line x1="50" y1="50" x2="85" y2="50"/><line x1="15" y1="50" x2="30" y2="82"/>
<line x1="50" y1="50" x2="30" y2="82"/><line x1="50" y1="50" x2="70" y2="82"/><line x1="85" y1="50" x2="70" y2="82"/><line x1="30" y1="82" x2="70" y2="82"/>
</g>
<g fill="#334155">
<circle cx="20" cy="20" r="8"/><circle cx="80" cy="20" r="8"/>
<circle cx="15" cy="50" r="7"/><circle cx="50" cy="50" r="10" fill="#0EA5E9"/><circle cx="85" cy="50" r="7"/>
<circle cx="30" cy="82" r="6"/><circle cx="70" cy="82" r="6"/>
</g>
</svg>
