<svg xmlns="http://www.w3.org/2000/svg" viewBox="0 0 36 24" fill="none">
<path d="M16.9129 18.03C20.1664 18.03 22.8039 15.3353 22.8039 12.0111C22.8039 8.68688 20.1664 5.99209 16.9129 5.99209C13.6594 5.99209 11.0219 8.68688 11.0219 12.0111C11.0219 15.3353 13.6594 18.03 16.9129 18.03Z" fill="#00B3FF"/>
<path fill-rule="evenodd" clip-rule="evenodd" d="M7.97503 3.51684C12.6472 -1.17228 20.2235 -1.17228 24.8956 3.51684C29.5753 8.20595 29.5753 15.8085 24.8956 20.4899C20.2235 25.1713 12.6472 25.1713 7.97503 20.4822L0.338563 12.8182C-0.112854 12.3647 -0.112854 11.6344 0.338563 11.1808L7.97503 3.51684ZM10.661 18.2376C14.0917 21.6814 19.6592 21.6814 23.09 18.2376C26.5207 14.7938 26.5207 9.21296 23.0824 5.76915C19.6517 2.32534 14.0842 2.32534 10.6534 5.76915L5.04082 11.3961C4.70978 11.7343 4.70978 12.2724 5.04082 12.603L10.661 18.2376Z" fill="#00B3FF"/>
<path d="M31.5385 7.75236L34.9015 11.1885C35.3454 11.642 35.3454 12.3723 34.9015 12.8335L31.5385 16.2696C31.3428 16.4695 31.0043 16.285 31.0645 16.0006C31.6438 13.3793 31.6438 10.6427 31.0645 8.02141C30.9968 7.73699 31.3353 7.54481 31.5385 7.75236Z" fill="#00B3FF"/>
</svg>
